<?xml version="1.0" encoding="utf-8"?>
<!-- Generator: Adobe Illustrator 24.1.2, SVG Export Plug-In . SVG Version: 6.00 Build 0)  -->
<svg version="1.1" id="Layer_1" xmlns="http://www.w3.org/2000/svg" xmlns:xlink="http://www.w3.org/1999/xlink" x="0px" y="0px"
	 viewBox="0 0 41 37" style="enable-background:new 0 0 41 37;" xml:space="preserve">
<style type="text/css">
	.st0{opacity:0.2;}
	.st1{fill:#FFFFFF;}
	.st2{fill:#7FAF1B;}
</style>
<g id="bg_1_" class="st0">
	<path d="M38,21H4c-1.6,0-3-1.4-3-3V4c0-1.6,1.4-3,3-3h34c1.6,0,3,1.4,3,3v14C41,19.6,39.7,21,38,21z"/>
</g>
<circle class="st0" cx="21" cy="29" r="8"/>
<g id="bg">
	<path class="st1" d="M37,20H3c-1.6,0-3-1.4-3-3V3c0-1.6,1.4-3,3-3h34c1.6,0,3,1.4,3,3v14C40,18.6,38.7,20,37,20z"/>
</g>
<g id="Layer_1_1_">
	<circle class="st1" cx="20" cy="28" r="8"/>
	<circle class="st2" cx="20" cy="28" r="4.4"/>
</g>
</svg>
